<?xml version="1.0" encoding="UTF-8" standalone="no"?>
<svg
   width="93.781654"
   height="13.205504"
   viewBox="0 0 93.781654 13.205504"
   version="1.1"
   id="svg60"
   sodipodi:docname="maersk_l.svg"
   inkscape:version="1.2.1 (9c6d41e410, 2022-07-14, custom)"
   xmlns:inkscape="http://www.inkscape.org/namespaces/inkscape"
   xmlns:sodipodi="http://sodipodi.sourceforge.net/DTD/sodipodi-0.dtd"
   xmlns="http://www.w3.org/2000/svg"
   xmlns:svg="http://www.w3.org/2000/svg">
  <defs
     id="defs64" />
  <sodipodi:namedview
     id="namedview62"
     pagecolor="#ffffff"
     bordercolor="#000000"
     borderopacity="0.25"
     inkscape:showpageshadow="2"
     inkscape:pageopacity="0.0"
     inkscape:pagecheckerboard="0"
     inkscape:deskcolor="#d1d1d1"
     showgrid="false"
     inkscape:zoom="9.6592593"
     inkscape:cx="26.296012"
     inkscape:cy="7.0398773"
     inkscape:window-width="1880"
     inkscape:window-height="987"
     inkscape:window-x="20"
     inkscape:window-y="73"
     inkscape:window-maximized="1"
     inkscape:current-layer="Maersk-Logo-RGB/Primary" />
  <g
     id="Maersk-Logo-RGB/Primary/No-Border"
     stroke="none"
     stroke-width="1"
     fill="none"
     fill-rule="evenodd"
     transform="translate(-41.179633,-8.4688073)">
    <g
       id="Maersk-Logo-RGB/Primary">
      <polyline
         id="Fill-4"
         fill="#0a0b09"
         points="41.179633 21.6666055 41.179633 8.46880734 44.6915596 8.46880734 49.1414679 18.3313761 53.5253211 8.46880734 56.8897248 8.46880734 56.8897248 21.6666055 53.9937615 21.6666055 53.9937615 13.9888073 50.6524771 21.6666055 47.5655046 21.6666055 44.1812844 14.0306422 44.1812844 21.6666055 41.179633 21.6666055" />
      <path
         d="m 68.544037,16.556697 -2.42312,-5.594312 -2.367523,5.594312 z m -6.956698,5.109908 H 58.181651 L 64.03578,8.4688073 h 4.192844 l 5.895963,13.1977977 h -3.361651 l -1.160367,-2.62899 h -6.890642 z"
         id="Fill-5"
         fill="#0a0b09" />
      <polyline
         id="Fill-6"
         fill="#0a0b09"
         points="75.4825688 21.6666055 75.4825688 8.46880734 88.0836697 8.46880734 88.0836697 11.1077064 78.526055 11.1077064 78.526055 13.7289908 86.7207339 13.7289908 86.7207339 16.3045872 78.526055 16.3045872 78.526055 19.0266055 88.106789 19.0266055 88.106789 21.6666055 75.4825688 21.6666055" />
      <path
         d="m 93.644404,14.528807 h 6.620916 v -3.421101 h -6.620916 z m -3.086422,7.137798 V 8.4688073 h 10.544588 c 1.40862,0 2.2266,0.8152294 2.2266,2.2133947 v 4.433945 c 0,1.02 -0.9033,1.942018 -2.65431,1.942018 -0.0991,0.005 -0.20036,0 -0.3044,0 l 3.06936,4.60844 h -3.38753 l -2.910272,-4.51266 h -3.497614 v 4.51266 z"
         id="Fill-7"
         fill="#0a0b09" />
      <path
         d="m 108.88165,21.674312 h -1.04477 c -1.36404,0 -2.02073,-0.788257 -2.02073,-1.935963 v -1.724037 h 3.0655 v 1.021101 h 6.51358 v -2.701651 c 0,0 -6.27908,0 -7.47138,0 -1.19284,0 -2.05211,-0.802019 -2.05211,-1.915046 V 10.50055 c 0,-1.1856876 0.93523,-2.0234858 2.07303,-2.0234858 1.13725,0 8.54092,0 8.54092,0 1.15431,0 1.95303,0.8614679 1.95303,2.1071558 0,1.244037 0,1.574863 0,1.574863 h -3.04349 v -1.04312 h -6.51358 v 2.599266 h 7.44991 c 1.09982,0 2.10716,0.727707 2.10716,2.128624 v 3.766789 c 0,1.283119 -0.71175,2.06367 -2.04276,2.06367 -1.33101,0 -7.51431,0 -7.51431,0"
         id="Fill-8"
         fill="#0a0b09" />
      <polyline
         id="Fill-9"
         fill="#0a0b09"
         points="121.380367 21.6743119 121.380367 8.47541284 124.509174 8.47541284 124.509174 13.7543119 130.468991 8.47541284 134.705321 8.47541284 127.595596 14.606422 134.961284 21.6743119 130.575229 21.6743119 124.509174 15.6710092 124.509174 21.6743119 121.380367 21.6743119" />
    </g>
  </g>
</svg>
